<svg width="123" height="104" viewBox="0 0 123 104" fill="none" xmlns="http://www.w3.org/2000/svg">
<path d="M23.4607 46.3352C29.4736 46.2886 35.3382 45.9377 40.9551 43.3882C54.9653 37.029 62.9935 24.4827 64.9058 9.55038C64.9792 8.97689 65.6424 3.83276 64.9231 2.28703C64.8054 2.03409 64.3004 1.89481 64.1074 2.09634C60.6227 5.7343 58.6427 10.5631 56.1239 14.9242C40.0617 42.7335 24.4889 70.9309 5.84488 97.1439C4.67415 98.7899 3.60628 100.547 2.14815 101.946C1.79406 102.285 2.16077 100.939 2.35642 100.49C4.12278 96.4296 7.30313 91.4382 9.83665 88.0777C14.0268 82.5199 17.2627 78.8977 23.3219 75.2845C32.0347 70.089 41.9761 68.8794 51.8891 68.2119C54.9471 68.006 63.3286 67.9022 66.8843 67.8652C68.0818 67.8527 69.2794 67.8635 70.4769 67.8478C71.1298 67.8393 72.7518 68.1673 72.4207 67.6051C71.3357 65.7628 65.8033 65.681 64.0033 65.681C61.2095 65.681 66.0785 67.2741 66.0859 67.2758C71.2547 68.4186 77.2211 67.4595 81.8795 65.0222C82.7081 64.5887 83.2841 63.8325 84.3266 64.0861C86.5326 64.6229 88.8314 66.7403 90.6614 67.9692C91.3498 68.4315 93.3682 69.3364 92.5705 69.564C90.0216 70.2914 85.2076 69.2195 82.6778 69.2C80.0715 69.1798 73.0413 68.8919 74.9893 70.6214C75.4863 71.0627 76.3647 71.4501 77.0026 70.8988C78.9351 69.2284 76.9177 65.426 76.0133 63.9475C74.9998 62.2905 73.1041 61.2607 72.1951 59.5444C72.0712 59.3104 72.4006 58.9344 72.6637 58.903C76.3278 58.4651 80.0234 59.4573 83.7018 59.7524C96.0024 60.7392 108.285 61.0005 120.617 61.0005" stroke="white" stroke-width="3" stroke-linecap="round"/>
</svg>
